<?xml version="1.0" encoding="UTF-8"?>
<!DOCTYPE svg PUBLIC "-//W3C//DTD SVG 1.1//EN" "http://www.w3.org/Graphics/SVG/1.1/DTD/svg11.dtd">
<!-- Creator: CorelDRAW -->
<svg xmlns="http://www.w3.org/2000/svg" xml:space="preserve" width="2048px" height="2048px" style="shape-rendering:geometricPrecision; text-rendering:geometricPrecision; image-rendering:optimizeQuality; fill-rule:evenodd; clip-rule:evenodd"
viewBox="0 0 2048 2048"
 xmlns:xlink="http://www.w3.org/1999/xlink">
 <defs>
  <style type="text/css">
   <![CDATA[
    .fil2 {fill:none}
    .fil1 {fill:#1E88E5}
    .fil5 {fill:#2D3634}
    .fil0 {fill:#64B5F6}
    .fil7 {fill:#951717}
    .fil9 {fill:#EF9A9A}
    .fil6 {fill:#B71C1C;fill-rule:nonzero}
    .fil8 {fill:#D32F2F;fill-rule:nonzero}
    .fil4 {fill:#ED8803;fill-rule:nonzero}
    .fil3 {fill:#FFA000;fill-rule:nonzero}
   ]]>
  </style>
   <clipPath id="id0">
    <path d="M1024 0c565.538,0 1024,458.462 1024,1024 0,565.538 -458.462,1024 -1024,1024 -565.538,0 -1024,-458.462 -1024,-1024 0,-565.538 458.462,-1024 1024,-1024z"/>
   </clipPath>
 </defs>
 <g id="Layer_x0020_1">
  <metadata id="CorelCorpID_0Corel-Layer"/>
  <path class="fil0" d="M1024 0c565.538,0 1024,458.462 1024,1024 0,565.538 -458.462,1024 -1024,1024 -565.538,0 -1024,-458.462 -1024,-1024 0,-565.538 458.462,-1024 1024,-1024z"/>
  <g style="clip-path:url(#id0)">
   <g id="_385685224">
    <g>
     <polygon id="_2346058881" class="fil1" points="1031.37,497.164 2167.25,1633.05 2167.26,1633.13 1031.38,497.248 "/>
     <polygon id="_234606560" class="fil1" points="973.562,731.043 2109.44,1866.93 2107.95,1866.37 2106.43,1865.91 2104.88,1865.54 2103.29,1865.28 2101.66,1865.12 2099.98,1865.06 2098.25,1865.11 2096.47,1865.26 2094.62,1865.52 2092.7,1865.9 2090.71,1866.38 2088.65,1866.98 2086.51,1867.69 2084.28,1868.52 2081.96,1869.47 2079.55,1870.54 2077.04,1871.73 2074.42,1873.05 2071.69,1874.49 2068.85,1876.05 2065.89,1877.75 2062.81,1879.58 2059.6,1881.54 2056.26,1883.63 2052.78,1885.86 2049.15,1888.23 2045.38,1890.74 2041.45,1893.38 2037.37,1896.17 2033.13,1899.11 2028.72,1902.19 2024.14,1905.42 2021.51,1907.29 2018.89,1909.18 2016.27,1911.09 2013.66,1913.02 2011.05,1914.97 2008.44,1916.94 2005.84,1918.92 2003.24,1920.93 2000.65,1922.95 1998.07,1925 1995.49,1927.06 1992.92,1929.14 1990.35,1931.23 1987.8,1933.34 1985.24,1935.47 1982.7,1937.62 1980.16,1939.78 1977.63,1941.96 1975.11,1944.16 1972.6,1946.37 1970.1,1948.59 1967.6,1950.83 1965.11,1953.09 1962.64,1955.36 1960.17,1957.65 1957.71,1959.95 1955.26,1962.26 1952.82,1964.59 1950.4,1966.93 1947.98,1969.28 1945.57,1971.65 1943.18,1974.03 807.298,838.147 809.694,835.768 812.099,833.401 814.516,831.047 816.943,828.706 819.381,826.378 821.829,824.064 824.287,821.764 826.756,819.479 829.233,817.209 831.719,814.952 834.214,812.711 836.72,810.485 839.232,808.274 841.752,806.079 844.282,803.9 846.818,801.738 849.362,799.592 851.914,797.462 854.473,795.349 857.038,793.254 859.609,791.175 862.188,789.114 864.772,787.072 867.362,785.047 869.958,783.041 872.559,781.054 875.164,779.085 877.776,777.135 880.391,775.205 883.011,773.295 885.634,771.405 888.262,769.534 892.842,766.306 897.251,763.225 901.492,760.292 905.573,757.502 909.498,754.854 913.269,752.347 916.894,749.98 920.375,747.751 923.72,745.656 926.93,743.697 930.013,741.87 932.972,740.173 935.812,738.605 938.539,737.164 941.156,735.849 943.668,734.658 946.081,733.588 948.4,732.64 950.629,731.809 952.771,731.097 954.833,730.498 956.82,730.014 958.735,729.642 960.584,729.38 962.371,729.226 964.102,729.179 965.781,729.237 967.412,729.399 969.002,729.661 970.553,730.025 972.072,730.485 "/>
     <polygon id="_234607328" class="fil1" points="1107.53,1371.78 2243.42,2507.67 2240.35,2510.38 2237.16,2513.16 2233.83,2516 2230.39,2518.9 2226.82,2521.85 2223.13,2524.86 2219.34,2527.91 2215.44,2531.01 2211.43,2534.15 2207.33,2537.32 2203.14,2540.54 2198.86,2543.78 2194.49,2547.05 2190.05,2550.35 2185.52,2553.67 2180.93,2557.01 2176.28,2560.36 2171.56,2563.72 2166.79,2567.09 2161.96,2570.47 2157.08,2573.85 2152.17,2577.23 2147.21,2580.61 2142.22,2583.97 2137.2,2587.33 2132.15,2590.67 2127.09,2593.99 2122.01,2597.29 2116.91,2600.57 2111.81,2603.82 2106.71,2607.03 2101.61,2610.22 2089.6,2617.51 2077.5,2624.52 2065.31,2631.24 2053.03,2637.66 2040.67,2643.77 2028.24,2649.54 2015.73,2654.98 2003.16,2660.05 1990.53,2664.75 1977.84,2669.07 1965.11,2672.99 1952.33,2676.51 1939.51,2679.59 1926.65,2682.24 1913.77,2684.43 1900.86,2686.16 1887.93,2687.41 1874.99,2688.17 1862.04,2688.42 1849.09,2688.15 1836.13,2687.35 1823.19,2686 1810.25,2684.09 1797.34,2681.61 1784.44,2678.54 1771.57,2674.87 1758.74,2670.58 1745.94,2665.66 1733.18,2660.11 1720.47,2653.89 1707.82,2647.01 1695.22,2639.45 559.337,1503.56 571.935,1511.13 584.591,1518.01 597.299,1524.22 610.056,1529.78 622.855,1534.7 635.691,1538.98 648.559,1542.66 661.454,1545.73 674.372,1548.21 687.306,1550.12 700.253,1551.47 713.206,1552.27 726.159,1552.54 739.11,1552.29 752.051,1551.53 764.978,1550.28 777.886,1548.55 790.771,1546.36 803.625,1543.71 816.446,1540.62 829.227,1537.11 841.961,1533.19 854.648,1528.87 867.278,1524.17 879.849,1519.09 892.354,1513.66 904.789,1507.89 917.147,1501.78 929.426,1495.36 941.618,1488.64 953.72,1481.62 965.724,1474.34 970.826,1471.15 975.93,1467.93 981.03,1464.68 986.124,1461.41 991.207,1458.11 996.274,1454.78 1001.32,1451.44 1006.34,1448.09 1011.33,1444.72 1016.29,1441.35 1021.2,1437.97 1026.08,1434.59 1030.9,1431.21 1035.68,1427.84 1040.4,1424.48 1045.05,1421.12 1049.64,1417.79 1054.16,1414.47 1058.61,1411.17 1062.98,1407.9 1067.26,1404.65 1071.45,1401.44 1075.55,1398.26 1079.56,1395.13 1083.46,1392.03 1087.25,1388.98 1090.94,1385.97 1094.5,1383.02 1097.95,1380.12 1101.28,1377.28 1104.47,1374.5 "/>
     <polygon id="_234606872" class="fil1" points="559.337,1503.56 1695.22,2639.45 1684.41,2632.21 1674.4,2624.63 538.515,1488.75 548.526,1496.33 "/>
     <polygon id="_234606704" class="fil1" points="1227.52,588.075 2363.4,1723.96 2364.51,1725.32 2365.48,1726.77 2366.3,1728.28 2366.99,1729.86 2367.52,1731.48 2367.91,1733.14 2368.14,1734.83 2368.23,1736.53 2368.16,1738.24 2367.93,1739.94 2367.56,1741.62 2367.02,1743.27 2366.33,1744.89 2365.47,1746.45 1229.59,610.573 1230.45,609.008 1231.14,607.392 1231.67,605.738 1232.05,604.055 1232.28,602.354 1232.34,600.648 1232.26,598.946 1232.02,597.259 1231.64,595.598 1231.1,593.976 1230.42,592.4 1229.6,590.885 1228.63,589.439 "/>
     <polygon id="_234606776" class="fil1" points="1229.7,610.509 2365.59,1746.39 2365.39,1746.72 2365.18,1747.05 2364.97,1747.38 2364.75,1747.71 2364.52,1748.03 2364.29,1748.35 2364.05,1748.66 2363.8,1748.97 1227.91,613.089 1228.16,612.779 1228.41,612.465 1228.64,612.147 1228.87,611.826 1229.09,611.501 1229.3,611.173 1229.51,610.842 "/>
     <polygon id="_234606848" class="fil1" points="1227.91,613.089 2363.8,1748.97 2363.78,1748.97 1227.9,613.084 "/>
     <polygon id="_329720648" class="fil1" points="1227.9,613.084 2363.78,1748.97 2359.77,1753.95 1223.89,618.071 "/>
     <polygon id="_329720672" class="fil1" points="1223.89,618.071 2359.77,1753.95 2357.34,1757 2354.93,1759.99 2352.53,1762.95 2350.15,1765.86 2347.77,1768.74 2345.4,1771.58 2343.04,1774.39 2340.68,1777.16 2338.32,1779.9 2335.96,1782.61 2333.6,1785.3 2331.24,1787.96 2328.87,1790.6 2326.49,1793.22 2324.09,1795.82 2321.69,1798.4 2319.27,1800.97 2316.84,1803.52 2314.39,1806.07 2311.91,1808.6 2309.42,1811.13 2306.89,1813.65 2304.35,1816.17 2301.77,1818.69 2299.16,1821.2 2296.52,1823.73 2293.85,1826.25 2291.14,1828.78 2288.39,1831.32 2285.6,1833.87 2282.77,1836.44 2279.89,1839.02 2277,1841.58 2274.09,1844.12 2271.17,1846.65 2268.24,1849.17 2265.29,1851.67 2262.32,1854.16 2259.34,1856.63 2256.34,1859.09 2253.32,1861.53 2250.29,1863.96 2247.25,1866.37 2244.18,1868.77 2241.11,1871.15 2238.02,1873.52 2234.91,1875.88 2231.79,1878.22 2228.65,1880.55 2225.49,1882.86 2222.32,1885.16 2219.14,1887.44 2215.94,1889.71 2212.73,1891.97 2209.5,1894.21 2206.25,1896.44 2202.99,1898.65 2199.72,1900.85 2196.43,1903.04 2193.13,1905.21 2189.81,1907.37 2186.47,1909.51 2183.12,1911.64 2179.76,1913.76 1043.88,777.873 1047.24,775.757 1050.59,773.627 1053.93,771.484 1057.24,769.326 1060.55,767.154 1063.84,764.969 1067.11,762.769 1070.37,760.556 1073.62,758.329 1076.85,756.087 1080.06,753.831 1083.26,751.561 1086.44,749.277 1089.61,746.978 1092.77,744.666 1095.9,742.339 1099.03,739.998 1102.13,737.642 1105.23,735.272 1108.3,732.888 1111.37,730.489 1114.41,728.075 1117.44,725.647 1120.45,723.205 1123.45,720.747 1126.44,718.275 1129.41,715.789 1132.36,713.287 1135.29,710.771 1138.21,708.24 1141.12,705.695 1144.01,703.134 1146.88,700.556 1149.72,697.992 1152.51,695.441 1155.26,692.9 1157.97,690.368 1160.64,687.843 1163.28,685.321 1165.89,682.803 1168.47,680.286 1171.01,677.767 1173.53,675.245 1176.03,672.719 1178.5,670.184 1180.96,667.641 1183.39,665.086 1185.81,662.519 1188.21,659.937 1190.61,657.337 1192.99,654.72 1195.36,652.08 1197.72,649.419 1200.08,646.732 1202.44,644.019 1204.8,641.276 1207.16,638.503 1209.52,635.698 1211.89,632.859 1214.27,629.982 1216.65,627.067 1219.05,624.112 1221.46,621.114 "/>
     <polygon id="_329720240" class="fil1" points="989.806,741.74 2125.69,1877.62 2110.2,1866.22 974.318,730.342 "/>
     <polygon id="_329720744" class="fil1" points="974.318,730.342 2110.2,1866.22 2109.44,1866.93 973.562,731.043 "/>
     <polygon id="_329720528" class="fil1" points="1043.88,777.873 2179.76,1913.76 2178.28,1914.73 2176.73,1915.54 2175.13,1916.21 2173.49,1916.72 2171.83,1917.08 2170.14,1917.28 2168.44,1917.34 2166.75,1917.24 2165.07,1917 2163.42,1916.61 2161.8,1916.06 2160.22,1915.37 2158.71,1914.53 2157.26,1913.54 2155.89,1912.41 2154.61,1911.13 1018.73,775.244 1020.01,776.526 1021.38,777.66 1022.82,778.647 1024.34,779.488 1025.91,780.18 1027.53,780.723 1029.19,781.118 1030.87,781.362 1032.56,781.457 1034.26,781.401 1035.94,781.194 1037.61,780.836 1039.25,780.324 1040.85,779.66 1042.4,778.844 "/>
     <polygon id="_329720264" class="fil1" points="1578.8,846.431 2714.68,1982.31 2715.99,1984.06 2717.13,1985.94 2718.09,1987.93 2718.86,1990.02 2719.42,1992.2 2719.76,1994.46 2719.88,1996.79 2719.88,2484.9 2719.76,2487.23 2719.42,2489.49 2718.86,2491.67 2718.09,2493.76 2717.13,2495.75 2715.99,2497.63 2714.68,2499.38 2713.22,2501 2711.6,2502.47 2709.85,2503.78 2707.97,2504.92 2705.98,2505.88 2703.89,2506.64 2701.71,2507.2 2699.45,2507.55 2697.12,2507.67 1561.24,1371.78 1563.57,1371.66 1565.83,1371.32 1568.01,1370.76 1570.1,1369.99 1572.09,1369.04 1573.97,1367.89 1575.72,1366.58 1577.33,1365.12 1578.8,1363.5 1580.11,1361.75 1581.25,1359.87 1582.21,1357.88 1582.98,1355.79 1583.54,1353.61 1583.88,1351.35 1584,1349.02 1584,860.909 1583.88,858.582 1583.54,856.321 1582.98,854.14 1582.21,852.049 1581.25,850.059 1580.11,848.182 "/>
     <polygon id="_329720792" class="fil1" points="1561.24,1371.78 2697.12,2507.67 2243.42,2507.67 1107.53,1371.78 "/>
    </g>
    <path id="_385684984" class="fil1" d="M1584 860.909l0 488.112c0,12.5705 -10.1906,22.7622 -22.761,22.7622l-453.704 0c-31.9299,28.604 -87.4182,68.7863 -141.81,102.553 -127.524,79.167 -272.336,113.612 -406.387,29.2276 -119.65,-75.3213 -99.7217,-211.305 -37.4197,-317.227l-55.4528 -122.013c-3.25276,-5.75788 -3.39922,-13.0536 0.248032,-19.128l0.0708662 -0.0307087c69.7075,-116.056 148.428,-217.953 238.699,-308.224 89.9824,-89.9812 191.516,-168.484 307.11,-238.025 5.32323,-3.73583 12.4264,-4.63583 18.7725,-1.75158l0.0106299 0.0838583 130.015 58.1032c0.992127,0.452363 17.4543,7.71615 22.278,11.1106 9.5315,4.33229 34.0548,13.7209 41.2016,19.1705 7.79646,5.94449 9.70513,16.7469 4.72205,24.9402l0.112205 -0.0637796c-0.517323,0.892914 -1.11378,1.75748 -1.79055,2.58071l-0.0177165 -0.00590552 -4.00866 4.9878c-25.9736,32.6953 -48.9378,57.4772 -79.8816,85.0631 -30.7252,27.3921 -64.1705,52.2402 -100.127,74.739 -7.72678,5.58662 -18.5858,4.59331 -25.1504,-2.62914l0.0401575 -0.0354331 -29.8193 -32.6752 0.8563 -0.793701 -15.4878 -11.3976 -0.755906 0.700394c-15.7654,-6.45591 -35.517,3.26575 -85.3005,38.491 -28.0477,19.8449 -55.48,43.1611 -80.9634,68.6138l753.941 0c12.5705,0 22.761,10.1906 22.761,22.761z"/>
   </g>
  </g>
  <path class="fil2" d="M1024 0c565.538,0 1024,458.462 1024,1024 0,565.538 -458.462,1024 -1024,1024 -565.538,0 -1024,-458.462 -1024,-1024 0,-565.538 458.462,-1024 1024,-1024z"/>
  <g id="_287970352">
   <path id="_287970376" class="fil3" d="M1561.24 1371.78c12.5705,0 22.7622,-10.1906 22.7622,-22.761l0 -488.112c0,-12.5705 -10.1917,-22.761 -22.7622,-22.761l-464.289 0 -0.579922 0 -0.579922 0 -464.288 0c-12.5705,0 -22.761,10.1906 -22.761,22.761l0 488.112c0,12.5705 10.1906,22.761 22.761,22.761 357.858,0 571.88,0 929.737,0z"/>
   <path id="_287970568" class="fil4" d="M1096.37 1137.19l0.35315 -0.232677 438.665 -262.09 -307.702 230.416 311.036 220.885 -352.813 -193.34 -76.8001 50.6422 0.0129921 0.0200788c-3.82205,2.58544 -8.14607,3.85276 -12.437,3.90709l-0.315355 0.00236221 -0.315355 -0.00236221c-4.29095,-0.0543308 -8.61379,-1.32165 -12.4358,-3.90709l0.0129921 -0.0200788 -76.8001 -50.6422 -352.813 193.34 311.036 -220.885 -307.702 -230.416 438.665 262.09 0.351969 0.232677z"/>
  </g>
  <path class="fil5" d="M544.987 1194.63c3.41693,-5.6693 1.57441,-13.102 -4.0937,-16.5189 -5.6693,-3.41575 -13.102,-1.57323 -16.5189,4.09607 -20.3008,33.6756 -36.7051,70.9406 -45.4406,109.364 -7.99961,35.1827 -9.68505,72.3142 -0.209055,107.394 12.274,45.4477 41.1449,79.7481 80.6127,104.595 134.05,84.3827 278.864,49.9394 406.387,-29.2276 54.4075,-33.7748 109.913,-73.9725 141.839,-102.578l-37.3772 0c-31.4374,25.2933 -75.1571,56.2217 -117.424,82.715 -116.959,73.3087 -253.932,108.558 -380.642,28.7929 -109.078,-68.6646 -84.2127,-193.938 -27.1323,-288.633z"/>
  <path class="fil6" d="M533.51 1211.84l18.5433 40.8012 -0.0661418 0.0295276c4.33819,9.54331 15.5917,13.7658 25.1351,9.42757 1.9063,-0.865749 3.59882,-2.00906 5.05512,-3.35788 31.7055,-25.5532 61.252,-53.602 88.6229,-84.1524 27.7063,-30.926 53.0953,-64.2839 76.1564,-100.081l0.0188977 0.00354331c5.36339,-8.32442 3.39095,-19.2673 -4.27441,-25.2402l-11.9599 -10.8709c-3.29055,-2.99173 -5.76733,-5.21457 -8.12835,-7.33583 -4.4067,-3.95551 -8.32323,-7.4752 -11.6787,-10.7965l-177.424 191.573z"/>
  <path class="fil7" d="M670.801 1174.59c-27.3709,30.5504 -56.9174,58.5993 -88.6229,84.1524 -1.4563,1.34882 -3.14882,2.49213 -5.05512,3.35788 -0.238583,0.108662 -0.478347,0.212599 -0.718111,0.31063 13.8933,-22.8815 32.1024,-48.4477 53.9056,-75.0296 39.4677,-48.1193 82.4363,-89.478 118.146,-115.639 -0.411024,0.948426 -0.903544,1.87441 -1.47992,2.77087l-0.0188977 -0.00354331c-23.061,35.7969 -48.45,69.1548 -76.1564,100.081z"/>
  <path class="fil8" d="M1012.59 498.916c-115.595,69.541 -217.128,148.044 -307.11,238.027 -90.2705,90.2705 -168.991,192.167 -238.697,308.223l16.2012 9.80552 -16.2732 -9.77481c-3.64843,6.07441 -3.50079,13.3701 -0.248032,19.128l58.5709 128.874 174.467 -188.379c-6.29056,-15.7311 3.49607,-35.5264 38.5725,-85.0985 19.924,-28.1599 43.3465,-55.6996 68.9174,-81.2694 25.5697,-25.5697 53.1095,-48.9933 81.2694,-68.9174 49.7835,-35.2252 69.5363,-44.9469 85.2993,-38.491l188.372 -174.46 -130.557 -59.3351 -7.86379 17.1969 7.85316 -17.2807c-6.34607,-2.88425 -13.448,-1.98307 -18.7725,1.75158z"/>
  <path class="fil9" d="M1161.39 555.351c1.20354,0.548032 25.1646,11.1189 23.5169,12.6496l-190.917 176.818 -20.7154 -15.2445 188.115 -174.223z"/>
  <path class="fil9" d="M698.187 1001.88l14.5476 19.7469 -177.176 191.303 -11.4614 -22.3299 174.294 -188.193c-0.0696851,-0.175984 -0.138189,-0.350788 -0.204331,-0.526772z"/>
  <path class="fil6" d="M988.951 742.534c3.2811,3.32481 6.75709,7.1941 10.6583,11.5382 2.12126,2.36221 4.3441,4.83898 7.33583,8.12835l11.824 13.0087 -0.0401575 0.0354331c6.56457,7.22245 17.4225,8.21575 25.1504,2.62914 35.9563,-22.4988 69.4016,-47.3469 100.127,-74.739 31.017,-27.652 59.2241,-57.8941 84.404,-90.9237l-15.0473 -11.4827 15.0957 11.5087c6.35434,-8.33741 4.74804,-20.2488 -3.58819,-26.6044 -1.62638,-1.24016 -3.39095,-2.17559 -5.22166,-2.81811l-39.0957 -17.7685c-0.209055,0.217323 -0.425197,0.429922 -0.649607,0.637796l-190.953 176.85z"/>
  <path class="fil7" d="M1143.45 703.308c-30.7229,27.1784 -63.3166,51.6201 -97.7658,73.3323 -1.60276,1.17165 -3.41693,2.11063 -5.40945,2.75079 -0.250394,0.080315 -0.499607,0.154725 -0.750001,0.22441 16.448,-21.1193 27.4748,-34.7327 62.2264,-68.2867 34.7516,-33.5551 89.4568,-78.9674 127.952,-100.82 -0.517323,0.894095 -1.11378,1.7563 -1.79055,2.58071l-0.0188977 -0.00590552c-26.4815,33.0945 -52.5485,63.0024 -84.4442,90.2245z"/>
 </g>
</svg>
